<mxfile host="app.diagrams.net" agent="Mozilla/5.0 (Windows NT 10.0; Win64; x64) AppleWebKit/537.36 (KHTML, like Gecko) Chrome/139.0.0.0 Safari/537.36" version="28.1.2">
  <diagram name="Página-1" id="AAIr4j5y21nvlSZM-j01">
    <mxGraphModel dx="1869" dy="562" grid="1" gridSize="10" guides="1" tooltips="1" connect="1" arrows="1" fold="1" page="1" pageScale="1" pageWidth="827" pageHeight="1169" math="0" shadow="0">
      <root>
        <mxCell id="0" />
        <mxCell id="1" parent="0" />
        <mxCell id="QjjNKZrsjhDWfRpStKVu-1" value="Fornecedor" style="whiteSpace=wrap;html=1;align=center;" vertex="1" parent="1">
          <mxGeometry x="-53" y="510" width="130" height="40" as="geometry" />
        </mxCell>
        <mxCell id="QjjNKZrsjhDWfRpStKVu-2" value="Produto" style="whiteSpace=wrap;html=1;align=center;" vertex="1" parent="1">
          <mxGeometry x="350" y="163" width="118" height="40" as="geometry" />
        </mxCell>
        <mxCell id="QjjNKZrsjhDWfRpStKVu-32" style="edgeStyle=orthogonalEdgeStyle;rounded=0;orthogonalLoop=1;jettySize=auto;html=1;entryX=0.5;entryY=0;entryDx=0;entryDy=0;" edge="1" parent="1" source="QjjNKZrsjhDWfRpStKVu-3" target="QjjNKZrsjhDWfRpStKVu-1">
          <mxGeometry relative="1" as="geometry" />
        </mxCell>
        <mxCell id="QjjNKZrsjhDWfRpStKVu-3" value="Tem" style="shape=rhombus;double=1;perimeter=rhombusPerimeter;whiteSpace=wrap;html=1;align=center;" vertex="1" parent="1">
          <mxGeometry x="-48" y="384" width="120" height="60" as="geometry" />
        </mxCell>
        <mxCell id="QjjNKZrsjhDWfRpStKVu-11" value="Cliente" style="whiteSpace=wrap;html=1;align=center;" vertex="1" parent="1">
          <mxGeometry x="718" y="423" width="100" height="50" as="geometry" />
        </mxCell>
        <mxCell id="QjjNKZrsjhDWfRpStKVu-19" style="edgeStyle=orthogonalEdgeStyle;rounded=0;orthogonalLoop=1;jettySize=auto;html=1;" edge="1" parent="1" source="QjjNKZrsjhDWfRpStKVu-12" target="QjjNKZrsjhDWfRpStKVu-13">
          <mxGeometry relative="1" as="geometry" />
        </mxCell>
        <mxCell id="QjjNKZrsjhDWfRpStKVu-24" style="edgeStyle=orthogonalEdgeStyle;rounded=0;orthogonalLoop=1;jettySize=auto;html=1;entryX=0;entryY=0.5;entryDx=0;entryDy=0;" edge="1" parent="1" source="QjjNKZrsjhDWfRpStKVu-12" target="QjjNKZrsjhDWfRpStKVu-21">
          <mxGeometry relative="1" as="geometry" />
        </mxCell>
        <mxCell id="QjjNKZrsjhDWfRpStKVu-12" value="Ordem_Servico" style="whiteSpace=wrap;html=1;align=center;" vertex="1" parent="1">
          <mxGeometry x="358" y="426" width="100" height="44" as="geometry" />
        </mxCell>
        <mxCell id="QjjNKZrsjhDWfRpStKVu-13" value="Tem" style="shape=rhombus;double=1;perimeter=rhombusPerimeter;whiteSpace=wrap;html=1;align=center;" vertex="1" parent="1">
          <mxGeometry x="348" y="286" width="120" height="60" as="geometry" />
        </mxCell>
        <mxCell id="QjjNKZrsjhDWfRpStKVu-18" style="edgeStyle=orthogonalEdgeStyle;rounded=0;orthogonalLoop=1;jettySize=auto;html=1;entryX=0.492;entryY=0.825;entryDx=0;entryDy=0;entryPerimeter=0;" edge="1" parent="1" source="QjjNKZrsjhDWfRpStKVu-13" target="QjjNKZrsjhDWfRpStKVu-2">
          <mxGeometry relative="1" as="geometry" />
        </mxCell>
        <mxCell id="QjjNKZrsjhDWfRpStKVu-23" style="edgeStyle=orthogonalEdgeStyle;rounded=0;orthogonalLoop=1;jettySize=auto;html=1;" edge="1" parent="1" source="QjjNKZrsjhDWfRpStKVu-21" target="QjjNKZrsjhDWfRpStKVu-11">
          <mxGeometry relative="1" as="geometry" />
        </mxCell>
        <mxCell id="QjjNKZrsjhDWfRpStKVu-21" value="Relationship" style="shape=rhombus;double=1;perimeter=rhombusPerimeter;whiteSpace=wrap;html=1;align=center;" vertex="1" parent="1">
          <mxGeometry x="515" y="418" width="120" height="60" as="geometry" />
        </mxCell>
        <mxCell id="QjjNKZrsjhDWfRpStKVu-30" style="edgeStyle=orthogonalEdgeStyle;rounded=0;orthogonalLoop=1;jettySize=auto;html=1;entryX=0.5;entryY=0;entryDx=0;entryDy=0;" edge="1" parent="1" source="QjjNKZrsjhDWfRpStKVu-25" target="QjjNKZrsjhDWfRpStKVu-26">
          <mxGeometry relative="1" as="geometry" />
        </mxCell>
        <mxCell id="QjjNKZrsjhDWfRpStKVu-43" style="edgeStyle=orthogonalEdgeStyle;rounded=0;orthogonalLoop=1;jettySize=auto;html=1;entryX=0;entryY=0.5;entryDx=0;entryDy=0;" edge="1" parent="1" source="QjjNKZrsjhDWfRpStKVu-25" target="QjjNKZrsjhDWfRpStKVu-41">
          <mxGeometry relative="1" as="geometry" />
        </mxCell>
        <mxCell id="QjjNKZrsjhDWfRpStKVu-25" value="contém" style="shape=rhombus;double=1;perimeter=rhombusPerimeter;whiteSpace=wrap;html=1;align=center;" vertex="1" parent="1">
          <mxGeometry x="-48" y="127" width="120" height="60" as="geometry" />
        </mxCell>
        <mxCell id="QjjNKZrsjhDWfRpStKVu-31" style="edgeStyle=orthogonalEdgeStyle;rounded=0;orthogonalLoop=1;jettySize=auto;html=1;entryX=0.5;entryY=0;entryDx=0;entryDy=0;" edge="1" parent="1" source="QjjNKZrsjhDWfRpStKVu-26" target="QjjNKZrsjhDWfRpStKVu-3">
          <mxGeometry relative="1" as="geometry" />
        </mxCell>
        <mxCell id="QjjNKZrsjhDWfRpStKVu-26" value="Materia_Prima" style="whiteSpace=wrap;html=1;align=center;" vertex="1" parent="1">
          <mxGeometry x="-53" y="280" width="130" height="50" as="geometry" />
        </mxCell>
        <mxCell id="QjjNKZrsjhDWfRpStKVu-34" value="1" style="text;html=1;align=center;verticalAlign=middle;resizable=0;points=[];autosize=1;strokeColor=none;fillColor=none;" vertex="1" parent="1">
          <mxGeometry x="5" y="244" width="30" height="30" as="geometry" />
        </mxCell>
        <mxCell id="QjjNKZrsjhDWfRpStKVu-35" value="1" style="text;html=1;align=center;verticalAlign=middle;resizable=0;points=[];autosize=1;strokeColor=none;fillColor=none;" vertex="1" parent="1">
          <mxGeometry x="10" y="478" width="30" height="30" as="geometry" />
        </mxCell>
        <mxCell id="QjjNKZrsjhDWfRpStKVu-36" value="N" style="text;html=1;align=center;verticalAlign=middle;resizable=0;points=[];autosize=1;strokeColor=none;fillColor=none;" vertex="1" parent="1">
          <mxGeometry x="10" y="328" width="30" height="30" as="geometry" />
        </mxCell>
        <mxCell id="QjjNKZrsjhDWfRpStKVu-37" value="N" style="text;html=1;align=center;verticalAlign=middle;resizable=0;points=[];autosize=1;strokeColor=none;fillColor=none;" vertex="1" parent="1">
          <mxGeometry x="404" y="394" width="30" height="30" as="geometry" />
        </mxCell>
        <mxCell id="QjjNKZrsjhDWfRpStKVu-38" value="N" style="text;html=1;align=center;verticalAlign=middle;resizable=0;points=[];autosize=1;strokeColor=none;fillColor=none;" vertex="1" parent="1">
          <mxGeometry x="410" y="204" width="30" height="30" as="geometry" />
        </mxCell>
        <mxCell id="QjjNKZrsjhDWfRpStKVu-39" value="1" style="text;html=1;align=center;verticalAlign=middle;resizable=0;points=[];autosize=1;strokeColor=none;fillColor=none;" vertex="1" parent="1">
          <mxGeometry x="460" y="424" width="30" height="30" as="geometry" />
        </mxCell>
        <mxCell id="QjjNKZrsjhDWfRpStKVu-40" value="1" style="text;html=1;align=center;verticalAlign=middle;resizable=0;points=[];autosize=1;strokeColor=none;fillColor=none;" vertex="1" parent="1">
          <mxGeometry x="690" y="424" width="30" height="30" as="geometry" />
        </mxCell>
        <mxCell id="QjjNKZrsjhDWfRpStKVu-44" style="edgeStyle=orthogonalEdgeStyle;rounded=0;orthogonalLoop=1;jettySize=auto;html=1;entryX=0;entryY=0.5;entryDx=0;entryDy=0;" edge="1" parent="1" source="QjjNKZrsjhDWfRpStKVu-41" target="QjjNKZrsjhDWfRpStKVu-42">
          <mxGeometry relative="1" as="geometry" />
        </mxCell>
        <mxCell id="QjjNKZrsjhDWfRpStKVu-41" value="Receita" style="whiteSpace=wrap;html=1;align=center;" vertex="1" parent="1">
          <mxGeometry x="140" y="40" width="110" height="50" as="geometry" />
        </mxCell>
        <mxCell id="QjjNKZrsjhDWfRpStKVu-45" style="edgeStyle=orthogonalEdgeStyle;rounded=0;orthogonalLoop=1;jettySize=auto;html=1;entryX=0.5;entryY=0;entryDx=0;entryDy=0;" edge="1" parent="1" source="QjjNKZrsjhDWfRpStKVu-42" target="QjjNKZrsjhDWfRpStKVu-2">
          <mxGeometry relative="1" as="geometry" />
        </mxCell>
        <mxCell id="QjjNKZrsjhDWfRpStKVu-42" value="Relationship" style="shape=rhombus;double=1;perimeter=rhombusPerimeter;whiteSpace=wrap;html=1;align=center;" vertex="1" parent="1">
          <mxGeometry x="349" y="35" width="120" height="60" as="geometry" />
        </mxCell>
        <mxCell id="QjjNKZrsjhDWfRpStKVu-46" value="N" style="text;html=1;align=center;verticalAlign=middle;resizable=0;points=[];autosize=1;strokeColor=none;fillColor=none;" vertex="1" parent="1">
          <mxGeometry x="255" y="38" width="30" height="30" as="geometry" />
        </mxCell>
        <mxCell id="QjjNKZrsjhDWfRpStKVu-47" value="1" style="text;html=1;align=center;verticalAlign=middle;resizable=0;points=[];autosize=1;strokeColor=none;fillColor=none;" vertex="1" parent="1">
          <mxGeometry x="375" y="128" width="30" height="30" as="geometry" />
        </mxCell>
        <mxCell id="QjjNKZrsjhDWfRpStKVu-48" value="N" style="text;html=1;align=center;verticalAlign=middle;resizable=0;points=[];autosize=1;strokeColor=none;fillColor=none;" vertex="1" parent="1">
          <mxGeometry x="105" y="68" width="30" height="30" as="geometry" />
        </mxCell>
      </root>
    </mxGraphModel>
  </diagram>
</mxfile>
